<?xml version="1.0" standalone="no"?><!DOCTYPE svg PUBLIC "-//W3C//DTD SVG 1.1//EN" "http://www.w3.org/Graphics/SVG/1.1/DTD/svg11.dtd"><svg t="1748953930828" class="icon" viewBox="0 0 1024 1024" version="1.1" xmlns="http://www.w3.org/2000/svg" p-id="14379" xmlns:xlink="http://www.w3.org/1999/xlink" width="32" height="32"><path d="M448.848 835.137c-212.816 0-385.958-173.139-385.958-385.953 0-212.805 173.142-385.948 385.958-385.948 212.818 0 385.965 173.142 385.965 385.948 0 212.814-173.146 385.953-385.965 385.953m0-676.905c-160.434 0-290.956 130.522-290.956 290.952 0 160.431 130.522 290.952 290.956 290.952 160.436 0 290.964-130.52 290.964-290.952 0.001-160.43-130.528-290.952-290.964-290.952" p-id="14380" fill="#2c2c2c"></path><path d="M899.635 958.408c-14.967 0-29.922-5.711-41.338-17.12L656.649 739.656c-22.826-22.824-22.826-59.842 0-82.678 22.842-22.82 59.851-22.82 82.684 0l201.647 201.63c22.827 22.827 22.827 59.843 0 82.678-11.421 11.41-26.38 17.121-41.345 17.121" p-id="14381" fill="#2c2c2c"></path></svg>