<?xml version="1.0" standalone="no"?><!DOCTYPE svg PUBLIC "-//W3C//DTD SVG 1.1//EN" "http://www.w3.org/Graphics/SVG/1.1/DTD/svg11.dtd"><svg t="1748954076483" class="icon" viewBox="0 0 1024 1024" version="1.1" xmlns="http://www.w3.org/2000/svg" p-id="19790" xmlns:xlink="http://www.w3.org/1999/xlink" width="32" height="32"><path d="M960 768c0 6.4 0 12.8-3.2 19.2L672 480l288-224L960 768 960 768zM115.2 828.8l288-307.2 108.8 83.2 105.6-83.2 294.4 307.2C905.6 832 118.4 832 115.2 828.8L115.2 828.8zM64 768l0-512 288 224-284.8 307.2C64 780.8 64 774.4 64 768L64 768zM928 192l-416 320-416-320L928 192 928 192zM896 128l-768 0c-70.4 0-128 57.6-128 128l0 512c0 70.4 57.6 128 128 128l768 0c70.4 0 128-57.6 128-128l0-512C1024 185.6 966.4 128 896 128L896 128z" p-id="19791" fill="#2c2c2c"></path></svg>