<?xml version="1.0" standalone="no"?><!DOCTYPE svg PUBLIC "-//W3C//DTD SVG 1.1//EN" "http://www.w3.org/Graphics/SVG/1.1/DTD/svg11.dtd"><svg t="1748953979743" class="icon" viewBox="0 0 1024 1024" version="1.1" xmlns="http://www.w3.org/2000/svg" p-id="15392" xmlns:xlink="http://www.w3.org/1999/xlink" width="32" height="32"><path d="M853.333 680.49H768V417.793a256 256 0 0 0-512 0v262.699h-85.333V417.792a341.333 341.333 0 0 1 682.666 0z m-729.216-40.618h775.766a40.875 40.875 0 0 1 38.784 42.667 40.875 40.875 0 0 1-38.784 42.666H124.117a40.875 40.875 0 0 1-38.784-42.666 40.875 40.875 0 0 1 38.784-42.667zM512 938.709a184.917 184.917 0 0 1-184.704-184.704h85.333a99.37 99.37 0 0 0 198.742 0h85.333A184.917 184.917 0 0 1 512 938.71z" p-id="15393" fill="#2c2c2c"></path></svg>