<?xml version="1.0" standalone="no"?><!DOCTYPE svg PUBLIC "-//W3C//DTD SVG 1.1//EN" "http://www.w3.org/Graphics/SVG/1.1/DTD/svg11.dtd"><svg t="1748958208558" class="icon" viewBox="0 0 1024 1024" version="1.1" xmlns="http://www.w3.org/2000/svg" p-id="27431" xmlns:xlink="http://www.w3.org/1999/xlink" width="32" height="32"><path d="M0 512c0 282.752 229.216 512 512 512 282.72 0 512-229.248 512-512 0-282.784-229.216-512-511.936-512C229.216 0 0 229.216 0 512" fill="#DEDFE3" p-id="27432"></path><path d="M622.112 701.504c-5.056-1.952-36.544-16.16-16.32-74.784 50.688-52.544 90.304-136.48 90.304-219.328 0-127.36-85.184-194.048-183.616-194.048-99.392 0-183.584 66.688-183.584 194.048 0 82.88 38.56 167.776 90.304 220.32 20.192 52.64-16.32 71.84-23.36 74.816-103.456 37.44-225.184 105.152-225.184 172.864v18.24A511.136 511.136 0 0 0 511.52 1024c131.84 0 251.52-50.56 341.824-132.48v-18.144c0.032-68.8-121.728-136.512-231.232-171.84" fill="#ACB0B3" p-id="27433"></path></svg>